<svg width="46" height="46" viewBox="0 0 46 46" fill="none" xmlns="http://www.w3.org/2000/svg">
<path d="M16.9362 41.8034L15.5156 42.8181V43.4269L16.3274 44.2386H17.545H19.1684L20.9948 43.6298L22.0095 42.8181V41.8034L20.9948 41.6005H18.9655C18.8031 41.6005 17.545 41.7358 16.9362 41.8034Z" fill="#8FD22B" stroke="#646464" stroke-width="0.405866"/>
<path d="M29.7201 41.6L31.1406 42.6147V43.2235L30.3289 44.0352H29.1113H27.4878L25.6614 43.4264L24.6468 42.6147V41.6L25.6614 41.3971H27.6908C27.8531 41.3971 29.1113 41.5324 29.7201 41.6Z" fill="#8FD22B" stroke="#646464" stroke-width="0.405866"/>
<ellipse cx="23.6327" cy="31.6563" rx="4.26159" ry="4.46452" fill="#8FD22B"/>
<path d="M28.0963 5.68143L24.0377 2.23157L14.9057 12.5811L14.2969 19.8867L16.7321 23.5395L21.3995 26.7864H26.067L30.1256 23.5395L32.155 19.8867L32.9667 17.0457L32.155 12.5811L30.1256 9.33422L28.0963 5.68143Z" fill="#8FD22B" stroke="#646464" stroke-width="0.405866"/>
<path d="M26.8788 13.1904L25.6612 14.408L25.2554 14.205L24.4436 13.3933L23.429 12.3786L21.6026 11.9728L19.7762 12.9874L18.5586 15.4226V17.0461L18.9645 19.0754L19.5733 20.293L20.5879 21.3077L21.8055 21.1048L23.226 20.9018L24.2407 20.293L24.4436 18.8725L25.6612 18.6696L26.6759 19.6842L28.2994 20.0901L29.7199 19.8872L30.5316 18.8725V17.452V15.0168L29.9228 13.1904L29.517 12.5816H27.8935C27.7312 12.5816 27.1494 12.9874 26.8788 13.1904Z" fill="white" stroke="#646464" stroke-width="0.405866"/>
<path fill-rule="evenodd" clip-rule="evenodd" d="M20.5417 3.12041C17.5902 5.9355 14.1083 10.4345 12.702 13.2488C10.7826 17.0915 11.5562 21.0236 14.8449 24.1398C15.7711 25.0177 16.5293 26.0745 16.5293 26.4885C16.5293 26.9025 15.5978 28.2256 14.4598 29.4294C11.9548 32.0777 11.9783 32.9937 14.5072 31.2806C15.5077 30.6028 16.4177 30.0451 16.5293 30.0415C16.6409 30.0378 16.7789 30.6876 16.8357 31.4856C16.9692 33.3525 17.4851 34.3278 19.3943 36.3243C20.913 37.9124 21.9695 39.8809 21.536 40.3143C21.4163 40.4341 20.0822 40.428 18.5712 40.3014C16.3487 40.1151 15.5836 40.2133 14.5661 40.8144C13.8741 41.2231 13.2113 41.8087 13.0936 42.116C12.7316 43.0588 13.594 44.1185 14.9419 44.388C17.2667 44.8527 21.5839 44.6733 22.4362 44.0763C23.1315 43.5893 23.3584 43.5893 24.0248 44.0763C24.8422 44.6742 29.176 44.8548 31.5102 44.388C33.3999 44.0102 33.809 42.9314 32.5967 41.5234C31.6729 40.4503 31.4225 40.3829 28.3667 40.3821C26.5801 40.3817 25.0017 40.2644 24.8588 40.1216C24.4461 39.7092 25.7481 36.9696 27.0745 35.4586C28.271 34.0961 28.5782 33.3298 28.797 31.1633L28.9082 30.0606L30.7273 31.2867C33.4738 33.1382 33.2497 31.9661 30.2857 28.9753L27.7113 26.3777L29.5742 24.6544C30.599 23.7063 31.7598 22.2996 32.1539 21.5284C33.2071 19.4687 33.4145 15.5569 32.6011 13.1075C31.1534 8.74936 25.3637 0.811035 23.6331 0.811035C23.2646 0.811035 21.8733 1.85046 20.5417 3.12041ZM23.3701 3.94148C21.9675 5.58848 18.1824 11.3063 17.1896 13.278C16.0455 15.55 15.8036 18.1736 16.554 20.1647C17.1304 21.6932 19.2279 23.8386 21.079 24.7928C26.2704 27.4687 32.3467 22.9745 32.3556 16.4519C32.3588 14.3775 29.7682 9.09516 27.1613 5.85879C25.0354 3.21985 24.3008 2.84848 23.3701 3.94148ZM19.8789 11.5425C18.7575 12.4858 17.7444 14.8373 17.7493 16.4839C17.7505 16.9044 17.9482 17.9568 18.1884 18.8225C19.1978 22.4587 22.459 23.5395 24.4692 20.9042L25.5504 19.4861L26.753 20.4984C28.2024 21.7176 28.3209 21.7265 29.6144 20.709C31.703 19.0661 31.8535 14.4331 29.8859 12.3388C28.7608 11.1411 27.9203 11.1091 26.5201 12.2106L25.4433 13.0576L24.0163 11.8047C22.2942 10.2929 21.4289 10.2381 19.8789 11.5425ZM20.2117 13.6506C19.2892 14.8227 19.0611 17.7389 19.7855 19.0924C20.9195 21.2111 23.0625 20.8628 24.095 18.3915C24.8093 16.682 24.5086 14.7947 23.3145 13.4943C22.2102 12.2918 21.2418 12.3405 20.2117 13.6506ZM26.902 13.8892C26.1329 14.9871 26.074 17.8403 26.8001 18.8331C28.1894 20.733 30.6631 18.3469 30.1485 15.6036C29.6817 13.1157 28.0481 12.2528 26.902 13.8892ZM21.4958 14.6766C20.8111 15.3613 20.8615 17.6484 21.5742 18.2397C22.7143 19.1858 23.5268 16.266 22.5105 14.8759C22.103 14.3191 21.8944 14.2781 21.4958 14.6766ZM27.6585 15.156C27.2693 16.171 27.6496 17.6545 28.2994 17.6545C28.7219 17.6545 28.9082 17.2299 28.9082 16.2676C28.9082 14.8288 28.0705 14.0832 27.6585 15.156ZM21.7601 28.1867C18.4908 30.0252 19.889 35.3096 23.6445 35.3096C25.6661 35.3096 27.4876 33.5076 27.4876 31.5079C27.4876 28.655 24.2578 26.782 21.7601 28.1867ZM23.1595 32.2928C22.821 33.1744 23.6798 34.0035 24.2947 33.3887C24.8142 32.8691 24.4924 31.6568 23.8348 31.6568C23.5974 31.6568 23.2938 31.943 23.1595 32.2928ZM6.96342 32.9199C6.66917 33.396 7.45371 34.0754 8.31049 34.0859C8.9757 34.0941 8.95094 34.323 8.15423 35.5393C7.32708 36.802 7.68018 37.2119 9.05485 36.5853C9.98752 36.1607 10.1324 36.2013 10.326 36.942C10.7506 38.5651 11.4572 37.4526 11.5769 34.9732L11.6974 32.4686H9.47005C8.24474 32.4686 7.11684 32.6715 6.96342 32.9199ZM33.6572 34.952C33.7773 37.4502 34.4823 38.5712 34.9085 36.942C35.1021 36.2013 35.247 36.1607 36.1797 36.5853C37.5543 37.2119 37.9074 36.802 37.0803 35.5393C36.2263 34.2357 36.2284 34.2272 37.4602 33.9183C39.2529 33.4682 38.3295 32.6796 35.8574 32.5493L33.5359 32.4268L33.6572 34.952ZM22.6233 38.4551C22.627 39.0691 22.797 39.8358 23.0016 40.1589C23.293 40.6196 23.4326 40.5104 23.6477 39.6524C23.7987 39.0505 23.817 38.2838 23.6883 37.9486C23.3003 36.9375 22.6168 37.2626 22.6233 38.4551ZM17.4425 42.2576C14.6266 43.0706 16.5768 44.0045 19.5262 43.2557C20.9869 42.8847 21.2937 42.6716 20.9134 42.2913C20.3505 41.7284 19.3107 41.7182 17.4425 42.2576ZM25.5139 42.3453C25.1555 42.7771 25.4482 42.9748 26.9568 43.3202C28.0031 43.5596 29.226 43.6067 29.6907 43.4257C30.4521 43.1294 30.3888 43.0369 29.0226 42.4508C27.1824 41.6614 26.1085 41.6289 25.5139 42.3453Z" fill="#565656"/>
</svg>
